# xmcd
#
# Track frame offsets:
# 150
# 22519
# 37099
# 64644
# 84292
# 97861
# 110032
# 123069
# 142235
# 164730
# 181196
# 196610
# 210281
#
# Disc length: 3167 seconds
#
#
# Revision: 0
# Processed by: cddbd v1.5.2PL0 Copyright (c) Steve Scherf et al.
# Submitted via: FreeRIP 2.945 
#
DISCID=9f0c5d0d
DTITLE=Big Chico - Blues Dream
DYEAR=2007
DGENRE=Blues
TTITLE0=St Paul Woman
TTITLE1=Too young to die
TTITLE2=West coast man
TTITLE3=Last chance
TTITLE4=Cut you loose
TTITLE5=Blowin' like hell
TTITLE6=Too late brother
TTITLE7=I'm a big man
TTITLE8=Sista Rebecca
TTITLE9=Caress me baby
TTITLE10=This girl betta have my money
TTITLE11=Yes baby
TTITLE12=Ode to Billie Joe
EXTD=
EXTT0=
EXTT1=
EXTT2=
EXTT3=
EXTT4=
EXTT5=
EXTT6=
EXTT7=
EXTT8=
EXTT9=
EXTT10=
EXTT11=
EXTT12=
PLAYORDER=
